<?xml version="1.0" encoding="UTF-8" standalone="no"?>
<!-- Created with Inkscape (http://www.inkscape.org/) -->

<svg
   width="225.80533mm"
   height="225.80533mm"
   viewBox="50 55 130 120"
   version="1.1"
   id="svg1"
   xml:space="preserve"
   xmlns="http://www.w3.org/2000/svg"
   xmlns:svg="http://www.w3.org/2000/svg"><defs
     id="defs1" /><path
     id="path8"
     style="font-variation-settings:'wght' 700;display:inline;fill:#d4d6e8;fill-opacity:1;stroke:none;stroke-width:3.85028;stroke-linejoin:round;stroke-opacity:1"
     d="m 159.46572,100.95559 a 38.322111,38.322111 0 0 0 -12.97957,-4.414713 38.322111,38.322111 0 0 0 -4.99608,-0.413411 38.322111,38.322111 0 0 0 -38.55733,32.666744 38.322111,38.322111 0 0 0 0.0377,11.54658 c -0.92092,-9.45058 6.17811,-18.84906 25.47855,-20.61167 0.67902,-0.062 1.78223,-0.13931 2.46083,-0.20567 14.92431,-1.45944 24.01103,-9.33261 28.55588,-18.56786 z" /><path
     id="rect3-3-3-7-1"
     style="font-variation-settings:'wght' 700;display:inline;fill:#68c898;stroke-width:1.51301;stroke-linecap:round;stroke-linejoin:round"
     d="M 116.25315,136.05026 H 132.595 c 1.51793,0 2.73994,1.22201 2.73994,2.73995 v 8.78096 c 0,1.51792 -1.22201,2.73995 -2.73994,2.73995 h -16.34185 c -1.51793,0 -2.73994,-1.22203 -2.73994,-2.73995 v -8.78096 c 0,-1.51794 1.22201,-2.73995 2.73994,-2.73995 z" /><path
     id="rect3-3-3-6-4-2"
     style="font-variation-settings:'wght' 700;display:inline;fill:#e46870;stroke-width:1.51301;stroke-linecap:round;stroke-linejoin:round"
     d="m 116.73019,112.08466 h 15.86301 c 1.65057,0 2.97936,1.3288 2.97936,2.97937 v 15.86301 c 0,1.65057 -1.32879,2.97936 -2.97936,2.97936 h -15.86301 c -1.65057,0 -2.97937,-1.32879 -2.97937,-2.97936 v -15.86301 c 0,-1.65057 1.3288,-2.97937 2.97937,-2.97937 z" /><path
     id="rect3-3-3-6-2-18-9"
     style="font-variation-settings:'wght' 700;display:inline;fill:#e0947a;stroke-width:1.51301;stroke-linecap:round;stroke-linejoin:round"
     d="m 140.64237,128.45007 h 14.90532 c 1.91585,0 3.45821,1.54235 3.45821,3.4582 v 14.90533 c 0,1.91585 -1.54236,3.45821 -3.45821,3.45821 h -14.90532 c -1.91584,0 -3.45821,-1.54236 -3.45821,-3.45821 v -14.90533 c 0,-1.91585 1.54237,-3.4582 3.45821,-3.4582 z" /><path
     id="rect3-3-3-6-5-5-3"
     style="font-variation-settings:'wght' 700;display:inline;fill:#e0b870;stroke-width:0.916592;stroke-linecap:round;stroke-linejoin:round"
     d="m 138.86016,113.58911 h 9.90004 c 0.91958,0 1.6599,0.7403 1.6599,1.65988 v 9.90005 c 0,0.91957 -0.74032,1.65988 -1.6599,1.65988 h -9.90004 c -0.91958,0 -1.65989,-0.74031 -1.65989,-1.65988 v -9.90005 c 0,-0.91958 0.74031,-1.65988 1.65989,-1.65988 z" /><path
     id="path20"
     style="font-variation-settings:'wght' 700;display:inline;fill:#78a0e0;stroke-width:7;stroke-linejoin:round"
     d="m 82.157777,74.570643 c -4.809993,0 -10.917396,3.24813 -12.896371,7.62692 -17.43211,38.571297 13.621557,87.422187 57.194444,87.422057 10.2222,0.0564 40.40314,-2.412 41.88892,-33.39124 0.15066,-3.14132 0.11302,-11.27441 -0.28112,-10.39782 -4.19251,17.63579 -13.38526,31.35682 -32.0089,35.25108 -1.02608,0.21455 -2.71018,0.44921 -3.75688,0.50539 -14.28743,0.76693 -25.27461,-7.70074 -28.46338,-17.24339 l -0.0181,0.007 a 38.322111,38.322111 0 0 1 -0.0853,-0.32453 c -0.38389,-1.2179 -0.64053,-2.45208 -0.76068,-3.68505 a 38.322111,38.322111 0 0 1 -0.0377,-11.54658 38.322111,38.322111 0 0 1 38.55735,-32.666737 38.322111,38.322111 0 0 1 4.99607,0.41341 38.322111,38.322111 0 0 1 12.97957,4.414717 c 3.32037,-6.747047 4.21658,-14.221287 3.19309,-20.451977 -0.55322,-3.36782 -4.50233,-5.93297 -7.92458,-5.93297 z M 64.331992,106.03074 c -7.172986,10.39064 -9.42405,21.22037 -3.758427,17.26302 1.55045,-1.08296 3.435223,-2.21296 5.530928,-3.40444 -1.107902,-4.53805 -1.717413,-9.18804 -1.772501,-13.85858 z m 39.399148,37.99509 a 38.322111,38.322111 0 0 0 0.0853,0.32453 l 0.0181,-0.007 c -0.0354,-0.10591 -0.0699,-0.21166 -0.10336,-0.31781 z" /><path
     d="m 140.09649,83.765542 c -0.55688,0.572483 -0.82503,1.324022 -0.79529,2.069128 0.0384,0.963087 0.37185,0.789535 0.73464,-0.107011 0.28711,-0.709494 0.81096,-1.130691 1.07012,-1.251838 0.75895,-0.354791 1.76048,0.02291 2.34743,0.891676 0.57139,0.845737 0.99274,0.987103 0.86967,-0.02045 -0.2366,-1.936965 -2.41433,-3.444385 -4.22657,-1.581505 z"
     style="font-variation-settings:'wght' 700;display:inline;fill:#ffffff;fill-opacity:1;stroke:none;stroke-width:0.202392;stroke-linecap:round;stroke-linejoin:round;stroke-opacity:1"
     id="path47" /><path
     d="m 158.33453,131.22145 c -0.12832,0.003 -0.19643,0.26954 -0.17364,0.78599 0.54648,12.38041 -7.09733,24.20785 -18.5105,28.16728 10.01429,-2.98147 16.99846,-9.0918 21.79816,-17.20205 -0.0395,-0.84412 -0.11406,-1.68727 -0.22324,-2.52698 -0.38689,-2.97556 -1.20681,-5.87556 -2.43086,-8.60826 -0.18648,-0.4163 -0.3467,-0.61873 -0.45992,-0.61598 z"
     style="font-variation-settings:'wght' 700;display:inline;fill:#6c90cc;stroke-width:0.864434;stroke-linecap:round;stroke-linejoin:round"
     id="path18" /><path
     style="font-variation-settings:'wght' 700;display:inline;fill:#78a0e0;fill-opacity:1;stroke:none;stroke-width:2.09015;stroke-linecap:round;stroke-linejoin:round;stroke-dasharray:none;stroke-opacity:1"
     d="m 122.85834,72.175366 c -0.68376,-7.46585 -4.30763,-8.863608 -6.69013,-7.927746 -0.29894,0.117422 -0.75152,0.382089 -1.00751,0.576284 -3.02309,2.293353 0.17991,6.177318 7.17554,7.806158 0.31312,0.07291 0.55142,-0.134528 0.5221,-0.454696 z"
     id="path10-6" /><path
     style="font-variation-settings:'wght' 700;display:inline;fill:#78a0e0;fill-opacity:1;stroke:none;stroke-width:1.47995;stroke-linecap:round;stroke-linejoin:round;stroke-dasharray:none;stroke-opacity:1"
     d="m 122.20536,64.890478 c 0.30482,-1.404398 0.2597,-2.514349 0.0199,-3.394397 -0.68762,-2.523083 -3.46598,-1.914518 -2.95934,-0.14603 0.38649,1.349093 1.16269,2.739716 2.6525,3.663853 0.12417,0.07702 0.25598,0.01939 0.28698,-0.123426 z"
     id="path10-9-1" /><path
     style="font-variation-settings:'wght' 700;display:inline;fill:#78a0e0;fill-opacity:1;stroke:none;stroke-width:2.78616;stroke-linecap:round;stroke-linejoin:round;stroke-dasharray:none;stroke-opacity:1"
     d="m 124.45828,72.504944 c 9.59405,-5.97582 8.51923,-14.209012 5.20787,-15.967113 -0.49433,-0.262453 -1.42058,-0.393143 -1.97971,-0.342324 -4.03105,0.366379 -4.95211,6.782719 -4.19425,15.816334 0.047,0.560651 0.48856,0.790542 0.96609,0.493103 z"
     id="path10-5-0" /></svg>
